<?xml version="1.0" standalone="no"?>
<!DOCTYPE svg PUBLIC "-//W3C//DTD SVG 20010904//EN"
 "http://www.w3.org/TR/2001/REC-SVG-20010904/DTD/svg10.dtd">
<svg version="1.0" xmlns="http://www.w3.org/2000/svg"
 width="700.000000pt" height="700.000000pt" viewBox="0 0 700.000000 700.000000"
 preserveAspectRatio="xMidYMid meet">
<metadata>
Created by potrace 1.11, written by Peter Selinger 2001-2013
</metadata>
<g transform="translate(0.000000,700.000000) scale(0.100000,-0.100000)"
fill="#000000" stroke="none">
<path d="M3460 6880 c-58 -11 -101 -39 -175 -115 -88 -91 -514 -530 -618 -638
-43 -45 -178 -185 -300 -311 -122 -126 -253 -261 -292 -301 -38 -40 -172 -178
-296 -306 -125 -129 -250 -259 -279 -289 -29 -30 -157 -162 -284 -294 -127
-131 -265 -273 -306 -316 -41 -42 -183 -189 -315 -325 -132 -137 -256 -265
-275 -285 -19 -20 -96 -100 -171 -178 -79 -81 -139 -152 -143 -168 -10 -39 11
-81 46 -93 20 -7 204 -11 534 -11 l504 0 0 -1568 0 -1568 893 1 c490 1 897 3
903 3 7 2 10 292 10 962 -1 632 2 961 9 963 21 6 1185 0 1191 -6 4 -3 6 -438
5 -965 l-2 -958 905 0 c638 0 906 3 907 10 1 6 2 711 3 1566 l1 1555 515 5
c560 5 553 5 565 61 9 41 -16 79 -120 187 -235 244 -665 689 -764 791 -81 83
-483 499 -591 611 -71 73 -495 511 -600 620 -80 82 -402 416 -884 914 -369
382 -390 403 -431 424 -48 24 -97 32 -145 22z"/>
</g>
</svg>
